<?xml version="1.0" encoding="utf-8"?>
<!-- Generator: Adobe Illustrator 18.0.0, SVG Export Plug-In . SVG Version: 6.00 Build 0)  -->
<!DOCTYPE svg PUBLIC "-//W3C//DTD SVG 1.1//EN" "http://www.w3.org/Graphics/SVG/1.1/DTD/svg11.dtd">
<svg version="1.1" id="Layer_1" xmlns="http://www.w3.org/2000/svg" xmlns:xlink="http://www.w3.org/1999/xlink" x="0px" y="0px"
	 viewBox="0 0 300 300" enable-background="new 0 0 300 300" xml:space="preserve">
<circle cx="149.5" cy="150.3" r="146.6"/>
<path fill="#FFFFFF" d="M125.2,87.9c0,4.7,0,25.7,0,25.7h-18.9v31.5h18.9v93.6H164v-93.6h26c0,0,2.4-15.1,3.6-31.6
	c-3.4,0-29.5,0-29.5,0s0-18.3,0-21.5c0-3.2,4.2-7.5,8.4-7.5c4.2,0,13,0,21.1,0c0-4.3,0-19.1,0-32.8c-10.9,0-23.3,0-28.7,0
	C124.3,51.7,125.2,83.2,125.2,87.9z"/>
</svg>
