<?xml version="1.0" encoding="utf-8"?>
<!-- Generator: Adobe Illustrator 18.0.0, SVG Export Plug-In . SVG Version: 6.00 Build 0)  -->
<!DOCTYPE svg PUBLIC "-//W3C//DTD SVG 1.1//EN" "http://www.w3.org/Graphics/SVG/1.1/DTD/svg11.dtd">
<svg version="1.1" id="Layer_1" xmlns="http://www.w3.org/2000/svg" xmlns:xlink="http://www.w3.org/1999/xlink" x="0px" y="0px"
	 viewBox="0 0 300 300" enable-background="new 0 0 300 300" xml:space="preserve">
<circle cx="147.5" cy="150.3" r="146.6"/>
<path fill="#FFFFFF" d="M233.6,137c12.1-1,20.4-6.5,23.6-14c-4.4,2.7-18,5.6-25.5,2.8c-0.4-1.7-0.8-3.4-1.2-4.9
	c-5.7-21-25.3-38-45.8-35.9c1.7-0.7,3.3-1.3,5-1.9c2.3-0.8,15.5-3,13.4-7.7c-1.8-4.1-18,3.1-21,4.1c4-1.5,10.7-4.1,11.4-8.7
	c-6.2,0.8-12.2,3.7-16.9,8c1.7-1.8,3-4.1,3.2-6.4c-16.5,10.5-26.1,31.7-33.8,52.3c-6.1-5.9-11.5-10.6-16.4-13.2
	C116,104.1,99.7,96.5,74.1,87c-0.8,8.4,4.2,19.7,18.5,27.2c-3.1-0.4-8.8,0.5-13.3,1.6c1.8,9.7,7.9,17.7,24.2,21.5
	c-7.5,0.5-11.3,2.2-14.8,5.9c3.4,6.7,11.7,14.7,26.6,13c-16.6,7.2-6.8,20.4,6.7,18.4c-23,23.8-59.3,22-80.2,2.1
	c54.4,74.2,172.8,43.9,190.4-27.6c13.2,0.1,21-4.6,25.8-9.7C250.5,140.8,239.5,139.4,233.6,137z"/>
</svg>
